# xmcd
#
# Track frame offsets:
# 150
# 16631
# 24116
# 35689
# 52239
# 67595
# 81719
# 96337
# 110556
# 126797
# 140258
#
# Disc length: 2302 seconds
#
#
# Revision: 0
# Processed by: cddbd v1.5PL3 Copyright (c) Steve Scherf et al.
# Submitted via: FreeRIP 2.53 
#
DISCID=8d08fc0b
DTITLE=Maurice Richard Libby Blues - Homemade
DYEAR=1900
DGENRE=Blues
TTITLE0=Slow Down
TTITLE1=Hey Babe
TTITLE2=I Found A Women
TTITLE3=Flesh and Blood
TTITLE4=I Never Lied To You Baby
TTITLE5=Sing Hallelujah
TTITLE6=Waiting For The Sun
TTITLE7=Into The Wind
TTITLE8=Reasons You Need (To Sing The Blues)
TTITLE9=It's Strange
TTITLE10=Bad Timing
EXTD=BluesfestRadio  com
EXTT0=
EXTT1=
EXTT2=
EXTT3=
EXTT4=
EXTT5=
EXTT6=
EXTT7=
EXTT8=
EXTT9=
EXTT10=
PLAYORDER=
